<svg width="382" height="629" viewBox="0 0 382 629" fill="none" xmlns="http://www.w3.org/2000/svg">
<path d="M191 0V0C191 34.7387 162.839 62.9001 128.1 62.9001H77.9C43.1613 62.9001 15 91.0614 15 125.8V125.8C15 160.539 43.1613 188.7 77.9 188.7H279H304.1C338.839 188.7 367 216.861 367 251.6V251.6C367 286.339 338.839 314.5 304.1 314.5H77.9C43.1613 314.5 15 342.661 15 377.4V377.4C15 412.139 43.1613 440.3 77.9 440.3H304.1C338.839 440.3 367 468.461 367 503.2V503.2C367 537.939 338.839 566.1 304.1 566.1H253.9C219.161 566.1 191 594.261 191 629V629" stroke="#35605A" stroke-width="30"/>
</svg>
